<svg xmlns="http://www.w3.org/2000/svg" width="251.001" height="221.884" viewBox="0 0 251.001 221.884">
  <g id="Grupo_1085611" data-name="Grupo 1085611" transform="translate(6965 5083.5)">
    <path id="Trazado_831188" data-name="Trazado 831188" d="M323.4,62.782a3.876,3.876,0,0,1-1.02.525" transform="translate(-7234.379 -5013.782)" fill="#fff"/>
    <path id="Trazado_831189" data-name="Trazado 831189" d="M323.4,62.782a3.876,3.876,0,0,1-1.02.525" transform="translate(-7234.879 -5013.282)" fill="none" stroke="#263238" stroke-linecap="round" stroke-linejoin="round" stroke-width="1"/>
    <g id="Grupo_1085214" data-name="Grupo 1085214" transform="translate(-6964.5 -5010.884)">
      <path id="Trazado_829288" data-name="Trazado 829288" d="M162.336,48.478,148.7,24.884a10.708,10.708,0,0,0-8.339-4.784H113.078a10.888,10.888,0,0,0-8.339,4.784L91.164,48.478a10.548,10.548,0,0,0,0,9.632L104.8,81.705a10.708,10.708,0,0,0,8.339,4.784h27.279a10.888,10.888,0,0,0,8.339-4.784L162.4,58.11A10.749,10.749,0,0,0,162.336,48.478Z" transform="translate(-84.483 -14.956)" fill="#8a3b95"/>
      <path id="Trazado_829289" data-name="Trazado 829289" d="M173.646,52.915,157.873,25.632A12.382,12.382,0,0,0,148.23,20.1H116.686a12.59,12.59,0,0,0-9.643,5.532l-15.7,27.284a12.2,12.2,0,0,0,0,11.138l15.772,27.284a12.382,12.382,0,0,0,9.643,5.532h31.545a12.59,12.59,0,0,0,9.643-5.532L173.72,64.053A12.429,12.429,0,0,0,173.646,52.915Z" transform="translate(-90 -20.1)" fill="none" stroke="#f78f20" stroke-width="1"/>
    </g>
    <g id="Grupo_1085217" data-name="Grupo 1085217" transform="translate(-6799.5 -5010.884)">
      <path id="Trazado_829288-2" data-name="Trazado 829288" d="M162.336,48.478,148.7,24.884a10.708,10.708,0,0,0-8.339-4.784H113.078a10.888,10.888,0,0,0-8.339,4.784L91.164,48.478a10.548,10.548,0,0,0,0,9.632L104.8,81.705a10.708,10.708,0,0,0,8.339,4.784h27.279a10.888,10.888,0,0,0,8.339-4.784L162.4,58.11A10.749,10.749,0,0,0,162.336,48.478Z" transform="translate(-84.483 -14.956)" fill="#226853"/>
      <path id="Trazado_829289-2" data-name="Trazado 829289" d="M173.646,52.915,157.873,25.632A12.382,12.382,0,0,0,148.23,20.1H116.686a12.59,12.59,0,0,0-9.643,5.532l-15.7,27.284a12.2,12.2,0,0,0,0,11.138l15.772,27.284a12.382,12.382,0,0,0,9.643,5.532h31.545a12.59,12.59,0,0,0,9.643-5.532L173.72,64.053A12.429,12.429,0,0,0,173.646,52.915Z" transform="translate(-90 -20.1)" fill="none" stroke="#f78f20" stroke-width="1"/>
    </g>
    <g id="Grupo_1085218" data-name="Grupo 1085218" transform="translate(-6885 -5083)">
      <path id="Trazado_829288-3" data-name="Trazado 829288" d="M162.336,48.478,148.7,24.884a10.708,10.708,0,0,0-8.339-4.784H113.078a10.888,10.888,0,0,0-8.339,4.784L91.164,48.478a10.548,10.548,0,0,0,0,9.632L104.8,81.705a10.708,10.708,0,0,0,8.339,4.784h27.279a10.888,10.888,0,0,0,8.339-4.784L162.4,58.11A10.749,10.749,0,0,0,162.336,48.478Z" transform="translate(-84.483 -14.956)" fill="#b7731b"/>
      <path id="Trazado_829289-3" data-name="Trazado 829289" d="M173.646,52.915,157.873,25.632A12.382,12.382,0,0,0,148.23,20.1H116.686a12.59,12.59,0,0,0-9.643,5.532l-15.7,27.284a12.2,12.2,0,0,0,0,11.138l15.772,27.284a12.382,12.382,0,0,0,9.643,5.532h31.545a12.59,12.59,0,0,0,9.643-5.532L173.72,64.053A12.429,12.429,0,0,0,173.646,52.915Z" transform="translate(-90 -20.1)" fill="none" stroke="#f78f20" stroke-width="1"/>
    </g>
    <g id="Grupo_1085219" data-name="Grupo 1085219" transform="translate(-6884.501 -4938.884)">
      <path id="Trazado_829288-4" data-name="Trazado 829288" d="M162.336,48.478,148.7,24.884a10.708,10.708,0,0,0-8.339-4.784H113.078a10.888,10.888,0,0,0-8.339,4.784L91.164,48.478a10.548,10.548,0,0,0,0,9.632L104.8,81.705a10.708,10.708,0,0,0,8.339,4.784h27.279a10.888,10.888,0,0,0,8.339-4.784L162.4,58.11A10.749,10.749,0,0,0,162.336,48.478Z" transform="translate(-84.483 -14.956)" fill="#2a56ae"/>
      <path id="Trazado_829289-4" data-name="Trazado 829289" d="M173.646,52.915,157.873,25.632A12.382,12.382,0,0,0,148.23,20.1H116.686a12.59,12.59,0,0,0-9.643,5.532l-15.7,27.284a12.2,12.2,0,0,0,0,11.138l15.772,27.284a12.382,12.382,0,0,0,9.643,5.532h31.545a12.59,12.59,0,0,0,9.643-5.532L173.72,64.053A12.429,12.429,0,0,0,173.646,52.915Z" transform="translate(-90 -20.1)" fill="none" stroke="#f78f20" stroke-width="1"/>
    </g>
    <g id="Grupo_1085216" data-name="Grupo 1085216" transform="translate(-6865.154 -4995.218)">
      <path id="Trazado_829288-5" data-name="Trazado 829288" d="M132.812,36.9,124.74,22.931A6.337,6.337,0,0,0,119.8,20.1H103.659a6.444,6.444,0,0,0-4.935,2.831L90.689,36.9a6.243,6.243,0,0,0,0,5.7l8.073,13.965a6.337,6.337,0,0,0,4.935,2.831h16.145a6.444,6.444,0,0,0,4.935-2.831L132.851,42.6A6.362,6.362,0,0,0,132.812,36.9Z" transform="translate(-86.735 -17.055)" fill="#0398c7"/>
      <path id="Trazado_829289-5" data-name="Trazado 829289" d="M139.506,39.522l-9.335-16.148a7.328,7.328,0,0,0-5.707-3.274h-18.67a7.452,7.452,0,0,0-5.707,3.274L90.8,39.522a7.219,7.219,0,0,0,0,6.592l9.335,16.148a7.328,7.328,0,0,0,5.707,3.274h18.67a7.452,7.452,0,0,0,5.707-3.274l9.335-16.148A7.356,7.356,0,0,0,139.506,39.522Z" transform="translate(-90 -20.1)" fill="none" stroke="#f78f20" stroke-width="1"/>
    </g>
    <text id="Técnicamente_una_excepción_es_un_objeto_instancia_de_una_clase_dependiendo_del_lenguaje_seleccionado_" data-name="Técnicamente, una 
excepción es un objeto 
instancia de una 
clase dependiendo 
del lenguaje
seleccionado
" transform="translate(-6842 -5063)" fill="#fff" font-size="5" font-family="Roboto-Regular, Roboto"><tspan x="-21.661" y="0">Técnicamente, una </tspan><tspan x="-26.11" y="7">excepción es un objeto </tspan><tspan x="-18.815" y="14">instancia de una </tspan><tspan x="-21.523" y="21">clase dependiendo </tspan><tspan x="-13.333" y="28">del lenguaje</tspan><tspan x="-14.769" y="35">seleccionado</tspan><tspan x="0" y="42"></tspan></text>
    <text id="Excepción" transform="translate(-6842 -4972)" fill="#fff" font-size="5" font-family="Roboto-Regular, Roboto"><tspan x="-11.392" y="0">Excepción</tspan></text>
    <text id="Por_lo_tanto_genera_que_se_interrumpa_el_curso_normal_del_método_donde_se_genera" data-name="Por lo tanto, genera que se
 interrumpa el curso normal 
del método donde se genera" transform="translate(-6922 -4979)" fill="#fff" font-size="5" font-family="Roboto-Regular, Roboto"><tspan x="-29.55" y="0">Por lo tanto, genera que se</tspan><tspan x="-31.233" y="7" xml:space="preserve"> interrumpa el curso normal </tspan><tspan x="-31.537" y="14">del método donde se genera</tspan></text>
    <text id="Este_objeto_contiene_información_sobre_el_error" data-name="Este objeto contiene 
información sobre el error" transform="translate(-6758 -4979)" fill="#fff" font-size="5" font-family="Roboto-Regular, Roboto"><tspan x="-23.241" y="0">Este objeto contiene </tspan><tspan x="-28.737" y="7">información sobre el error</tspan></text>
    <text id="Es_enviada_al_sistema_Runtime_system_en_tiempo_de_ejecución" data-name="Es enviada al sistema 
(Runtime system) en tiempo de 
ejecución" transform="translate(-6842 -4905)" fill="#fff" font-size="5" font-family="Roboto-Regular, Roboto"><tspan x="-24.68" y="0">Es enviada al sistema </tspan><tspan font-family="Roboto-Italic, Roboto" font-style="italic"><tspan x="-34.969" y="7">(Runtime system</tspan><tspan y="7" font-family="Roboto-Regular, Roboto" font-style="normal">) en tiempo de </tspan></tspan><tspan x="-10.653" y="14">ejecución</tspan></text>
    <line id="Línea_887" data-name="Línea 887" x2="12" transform="translate(-6877.5 -4972.5)" fill="none" stroke="#707070" stroke-width="1"/>
    <line id="Línea_888" data-name="Línea 888" x2="12" transform="translate(-6814.846 -4972.5)" fill="none" stroke="#707070" stroke-width="1"/>
    <line id="Línea_889" data-name="Línea 889" y1="7" transform="translate(-6841.5 -5002.5)" fill="none" stroke="#707070" stroke-width="1"/>
    <line id="Línea_890" data-name="Línea 890" y1="8" transform="translate(-6841.5 -4949.782)" fill="none" stroke="#707070" stroke-width="1"/>
    <path id="Polígono_170" data-name="Polígono 170" d="M2.5,0,5,4H0Z" transform="translate(-6844 -5005)" fill="#1682fb"/>
    <path id="Polígono_171" data-name="Polígono 171" d="M2.5,0,5,4H0Z" transform="translate(-6839 -4939) rotate(180)" fill="#1682fb"/>
    <path id="Polígono_172" data-name="Polígono 172" d="M2.5,0,5,4H0Z" transform="translate(-6879.5 -4969.5) rotate(-90)" fill="#1682fb"/>
    <path id="Polígono_173" data-name="Polígono 173" d="M2.5,0,5,4H0Z" transform="translate(-6799.846 -4975.5) rotate(90)" fill="#1682fb"/>
  </g>
</svg>
